<svg
    width="120"
    height="120"
    viewBox="0 0 120 120"
    fill="none"
    xmlns="http://www.w3.org/2000/svg"
    className="w-full h-full"
>
    <path
        d="M60 105C84.8528 105 105 84.8528 105 60C105 35.1472 84.8528 15 60 15C35.1472 15 15 35.1472 15 60C15 84.8528 35.1472 105 60 105Z"
        fill="url(#paint0_linear_6_53)"
    />
    <path
        d="M47.6923 54.384C45.9216 54.384 44.2789 54.096 42.7643 53.52C41.2709 52.944 39.9696 52.1333 38.8602 51.088C37.7723 50.0427 36.9189 48.816 36.3003 47.408C35.7029 46 35.4043 44.464 35.4043 42.8C35.4043 41.136 35.7029 39.6 36.3003 38.192C36.9189 36.784 37.7829 35.5573 38.8923 34.512C40.0016 33.4667 41.3029 32.656 42.7963 32.08C44.2896 31.504 45.9109 31.216 47.6603 31.216C49.4309 31.216 51.0522 31.504 52.5243 32.08C54.0176 32.656 55.3083 33.4667 56.3963 34.512C57.5056 35.5573 58.3696 36.784 58.9883 38.192C59.6069 39.5787 59.9163 41.1147 59.9163 42.8C59.9163 44.464 59.6069 46.0107 58.9883 47.44C58.3696 48.848 57.5056 50.0747 56.3963 51.12C55.3083 52.144 54.0176 52.944 52.5243 53.52C51.0522 54.096 49.4416 54.384 47.6923 54.384ZM47.6603 49.968C48.6629 49.968 49.5803 49.7973 50.4123 49.456C51.2656 49.1147 52.0123 48.624 52.6523 47.984C53.2923 47.344 53.7829 46.5867 54.1243 45.712C54.4869 44.8373 54.6683 43.8667 54.6683 42.8C54.6683 41.7333 54.4869 40.7627 54.1243 39.888C53.7829 39.0133 53.2923 38.256 52.6523 37.616C52.0336 36.976 51.2976 36.4853 50.4443 36.144C49.5909 35.8027 48.6629 35.632 47.6603 35.632C46.6576 35.632 45.7296 35.8027 44.8763 36.144C44.0443 36.4853 43.3083 36.976 42.6683 37.616C42.0283 38.256 41.5269 39.0133 41.1643 39.888C40.8229 40.7627 40.6523 41.7333 40.6523 42.8C40.6523 43.8453 40.8229 44.816 41.1643 45.712C41.5269 46.5867 42.0176 47.344 42.6363 47.984C43.2763 48.624 44.0229 49.1147 44.8763 49.456C45.7296 49.7973 46.6576 49.968 47.6603 49.968ZM74.6283 54.384C72.8576 54.384 71.2256 54.1067 69.7323 53.552C68.2603 52.976 66.9696 52.1653 65.8602 51.12C64.7723 50.0747 63.9189 48.848 63.3003 47.44C62.7029 46.032 62.4043 44.4853 62.4043 42.8C62.4043 41.1147 62.7029 39.568 63.3003 38.16C63.9189 36.752 64.7829 35.5253 65.8923 34.48C67.0016 33.4347 68.3029 32.6347 69.7963 32.08C71.2896 31.504 72.9323 31.216 74.7243 31.216C76.7083 31.216 78.4896 31.5467 80.0683 32.208C81.6683 32.8693 83.0123 33.8293 84.1003 35.088L80.7723 38.16C79.9616 37.3067 79.0763 36.6773 78.1163 36.272C77.1563 35.8453 76.1109 35.632 74.9803 35.632C73.8923 35.632 72.9003 35.8027 72.0043 36.144C71.1083 36.4853 70.3296 36.976 69.6683 37.616C69.0283 38.256 68.5269 39.0133 68.1643 39.888C67.8229 40.7627 67.6523 41.7333 67.6523 42.8C67.6523 43.8453 67.8229 44.8053 68.1643 45.68C68.5269 46.5547 69.0283 47.3227 69.6683 47.984C70.3296 48.624 71.0976 49.1147 71.9723 49.456C72.8683 49.7973 73.8496 49.968 74.9163 49.968C75.9403 49.968 76.9323 49.808 77.8923 49.488C78.8736 49.1467 79.8229 48.5813 80.7403 47.792L83.6843 51.536C82.4683 52.4533 81.0496 53.1573 79.4283 53.648C77.8283 54.1387 76.2283 54.384 74.6283 54.384ZM78.9483 50.864V42.448H83.6843V51.536L78.9483 50.864Z"
        fill="white"
    />
    <defs>
        <linearGradient
        id="paint0_linear_6_53"
        x1="1.58051e-07"
        y1="21.2132"
        x2="63.6396"
        y2="84.8528"
        gradientUnits="userSpaceOnUse"
        >
        <stop stop-color="#E3E2E2" />
        <stop offset="1" stop-color="#3D3D3D" />
        </linearGradient>
    </defs>
</svg>